<?xml version="1.0" standalone="no"?><!DOCTYPE svg PUBLIC "-//W3C//DTD SVG 1.1//EN" "http://www.w3.org/Graphics/SVG/1.1/DTD/svg11.dtd"><svg t="1615536989399" class="icon" viewBox="0 0 1024 1024" version="1.1" xmlns="http://www.w3.org/2000/svg" p-id="23792" xmlns:xlink="http://www.w3.org/1999/xlink" width="200" height="200"><defs><style type="text/css"></style></defs><path d="M511.80002 520.749146m-244.176155 0a244.176155 244.176155 0 1 0 488.352309 0 244.176155 244.176155 0 1 0-488.352309 0Z" fill="#FFB476" p-id="23793"></path><path d="M68.943267 517.449468c24.097647 38.596231 22.097842 88.891319-6.999316 123.887901-15.998438 19.298115-26.997364 41.395957-24.097647 64.593692 6.499365 51.594961 47.495362 93.890831 98.890343 101.89005 41.595938 6.399375 79.792208-8.899131 105.389708-36.196465 2.599746 2.699736 5.299482 5.299482 7.999219 7.899229-19.798067 18.098233-31.696905 44.695635-29.59711 74.092764 3.099697 44.395664 39.196172 81.092081 83.491847 84.89171 46.79543 3.999609 86.891515-27.297334 97.090518-70.093155 1.799824 0.599941 3.699639 1.099893 5.599453 1.599844-2.599746 8.69915-3.699639 18.198223-2.599746 27.997265 3.799629 34.996582 34.696612 62.593887 69.993165 62.493898 38.596231-0.09999 69.893174-31.496924 69.893174-70.093155 0-2.299775-0.09999-4.599551-0.29997-6.799336 2.199785-0.19998 4.29958-0.299971 6.499365-0.499952 8.199199 61.394004 61.294014 109.889269 127.087589 108.589396 34.296651 0 66.993458-14.898545 89.491261-40.896006l0.899912-0.999903c15.698467-17.498291 26.697393-39.296162 30.497022-63.493799 4.699541-29.79709-1.299873-58.394297-14.998536-82.191973-7.199297-12.498779-5.699443-28.097256 4.19959-38.596231l0.299971-0.399961c9.199102-9.799043 23.397715-12.59877 35.796504-7.499268 15.598477 6.299385 32.896787 9.399082 50.99502 8.49917 58.594278-3.199688 107.289523-50.695049 111.789083-109.189337 4.19959-54.894639-28.997168-102.589981-76.792501-120.488233-11.998828-4.499561-19.998047-16.098428-19.898056-28.897178v-0.199981c0-1.299873-0.09999-2.699736-0.099991-3.999609 41.395957-12.69876 70.393126-53.794747 63.993751-100.590177-4.499561-33.196758-27.997266-61.593985-59.3942-73.092862-17.898252-6.599356-34.996582-6.999316-50.795039-3.599649-1.599844-2.899717-3.299678-5.799434-4.999512-8.69915 26.697393-12.398789 44.295674-41.095987 39.896104-73.392833-3.999609-29.497119-27.197344-53.894737-56.494483-59.194219-29.397129-5.299482-56.294502 7.899229-71.093058 29.79709-0.699932-0.599941-1.499854-1.199883-2.299775-1.799824 0.699932-5.999414 1.099893-12.198809 1.099893-18.398204 0-53.194805-25.69749-100.490187-65.393614-129.987305-18.898154-13.998633-40.896006-23.997656-64.793673-28.797188-10.298994-1.999805-20.897959-3.099697-31.696904-3.099698-31.996875 0-61.893956 9.299092-86.991505 25.39752-29.197149 18.698174-51.894932 46.495459-64.293721 79.292257-7.299287 1.499854-14.398594 3.199688-21.497901 5.099502-1.999805-40.196075-37.596328-71.493018-79.392247-66.093546-29.59711 3.799629-54.094717 26.897373-59.49419 56.294503-3.799629 20.797969 1.599844 40.296065 12.79875 55.2946 3.999609 5.299482 3.099697 12.69876-2.199785 16.598379-0.09999 0.09999-0.19998 0.09999-0.19998 0.19998-5.999414 4.499561-14.898545 2.099795-17.498292-4.899521-14.298604-37.996289-53.094815-63.993751-97.190508-58.694268-41.395957 4.999512-74.992676 38.796211-79.692218 80.192169-6.299385 55.19461 36.396446 101.89005 90.091202 102.489991-2.099795 3.699639-4.0996 7.499268-5.999414 11.298896-2.999707-0.19998-6.099404-0.499951-9.199102-0.499951-65.593594 0-118.688409 53.194805-118.688409 118.68841 0 15.198516 2.899717 29.79709 8.099209 43.195781l12.79875 21.09794z" fill="#FFC794" p-id="23794"></path><path d="M809.670931 423.458647c0 1.299873 0.09999 2.699736-3.499659 5.599453v13.998633c3.699639 3.799629 7.099307 8.59916 12.298799 9.999023 29.997071 7.799238 55.19461 27.197344 70.993067 52.894835 0-0.899912-0.09999-1.899814-0.09999-2.799727 49.395176-15.098526 81.092081-70.893077 56.094522-128.387462-0.899912-1.999805-1.999805-3.999609-3.299678-5.699443-18.898154-25.29753-36.096475-36.196465-52.394883-41.095987-7.599258-2.299775-15.298506 3.699639-15.298506 11.698857-0.09999 25.997461-28.397227 72.692901-64.793672 83.791818zM758.47593 237.476809c1.699834 2.899717 3.399668 5.799434 4.999512 8.69915 15.698467-3.399668 32.896787-2.999707 50.795039 3.599649 15.898447 5.799434 29.6971 15.998438 40.096085 28.997168 5.999414 7.499268 17.898252 5.599453 20.897959-3.499658 6.699346-20.198028 4.29958-44.495655-12.098819-68.493311-0.699932-0.999902-1.599844-1.999805-2.599746-2.799727-18.198223-15.198516-36.296455-20.597988-52.894834-20.298018-5.199492 0.09999-9.799043 3.599648-11.198906 8.599161-5.399473 19.998047-19.498096 36.496436-37.99629 45.195586zM91.641051 243.276243c0.499951 4.0996 1.299873 7.999219 2.299775 11.898838 0.699932 0.09999 1.299873 0.09999 1.999805 0.09999 1.999805-3.799629 3.899619-7.599258 5.999414-11.298897-3.499658 0-6.899326-0.19998-10.298994-0.699931zM909.361195 536.347622c-2.999707-1.099893-5.699443-2.699736-8.199199-4.599551 10.998926 34.396641 7.199297 75.492628-21.897862 116.288644-3.699639 5.199492-8.29919 9.699053-13.598672 13.298701-47.895323 32.096866-96.590567 30.996973-133.586954 11.098917-4.699541-2.499756-10.598965-1.299873-14.298604 2.599746l-20.997949 22.297822c-3.899619 4.19959-4.499561 10.598965-1.099893 15.198516 18.998145 25.797481 28.297237 59.094229 22.697784 94.090811-3.799629 24.197637-14.798555 45.995508-30.497022 63.4938l-0.899912 0.999902c-22.497803 25.997461-55.09462 40.896006-89.491261 40.896006-6.599356 0.09999-13.098721-0.299971-19.498096-1.099892-9.899033-1.399863-17.498291 8.999121-12.498779 17.698271 21.897862 38.19627 63.293819 64.093741 111.689093 63.093839 34.296651 0 66.993458-14.898545 89.49126-40.896006l0.899912-0.999903c15.698467-17.398301 26.697393-39.296162 30.497022-63.493799 5.499463-34.996582-3.699639-68.19334-22.697783-94.090811-3.399668-4.599551-2.799727-10.998926 1.099892-15.198516l21.09794-22.397813c3.699639-3.899619 9.499072-4.999512 14.298604-2.499756 37.496338 20.198028 86.991505 20.997949 135.486769-12.398789 5.499463-3.799629 10.199004-8.59916 13.898642-14.098623 53.694756-80.192169 15.298506-164.183966-51.894932-189.281516zM470.604043 803.321551c-2.099795 0.19998-4.29958 0.299971-6.499366 0.499951 0.19998 2.299775 0.299971 4.499561 0.299971 6.799336 0 32.396836-21.997852 59.59418-51.794942 67.593399-4.999512 1.399863-8.59916 5.799434-8.799141 10.998926-0.399961 17.798262 6.099404 37.296358 26.897374 57.594375 0.799922 0.799922 1.799824 1.599844 2.799726 2.099795 47.295381 27.297334 95.390685 2.099795 107.589493-38.596231 1.599844-5.399473-0.999902-11.098916-5.999414-13.798652-34.596621-18.698174-59.094229-53.094815-64.493701-93.190899zM321.618592 788.722976c-10.199004 42.795821-50.295088 73.992774-97.090519 70.093155-1.099893-0.09999-2.199785-0.299971-3.299677-0.399961 5.199492 42.195879 40.296065 76.49253 82.991895 80.092179 42.195879 3.599648 78.892296-21.497901 93.190899-57.894346-0.899912 0-1.799824 0.09999-2.799726 0.09999-35.196563 0.09999-66.093546-27.397324-69.993165-62.493897-1.099893-9.799043-0.09999-19.198125 2.599746-27.997266" fill="#E8AF80" p-id="23795"></path><path d="M511.80002 520.749146m-244.176155 0a244.176155 244.176155 0 1 0 488.352309 0 244.176155 244.176155 0 1 0-488.352309 0Z" fill="#FFB476" p-id="23796"></path><path d="M664.385119 330.267747c33.496729 41.795918 53.594766 94.890733 53.594766 152.585099 0 134.886827-109.289327 244.176155-244.176155 244.176155-57.794356 0-110.789181-20.098037-152.585099-53.594766C366.014256 729.128796 434.707548 764.9253 511.80002 764.9253 646.686847 764.9253 755.976174 655.635973 755.976174 520.749146c-0.09999-77.092471-35.796504-145.785763-91.591055-190.481399z" fill="#E59C65" p-id="23797"></path><path d="M298.520848 551.646128c0-134.886827 109.289327-244.176155 244.176154-244.176154 59.59418 0 114.088859 21.29792 156.484719 56.794453-44.795625-53.594766-112.089054-87.691436-187.381701-87.691436-134.886827 0-244.176155 109.289327-244.176155 244.176155 0 75.292647 34.09667 142.586076 87.691436 187.381701-35.396543-42.39586-56.794454-96.890538-56.794453-156.484719z" fill="#FFD6BB" p-id="23798"></path><path d="M332.317547 355.365296c-21.697881-7.099307-37.496338-27.497315-37.496338-51.594961 0-29.89708 24.297627-54.294698 54.294698-54.294698 29.397129 0 53.394786 23.397715 54.194707 52.594864" fill="#FFB476" p-id="23799"></path><path d="M312.919441 321.868568c0-29.89708 24.297627-54.294698 54.294698-54.294698 10.298994 0 19.798067 2.999707 27.897276 7.899228-9.499072-15.598477-26.497412-26.097451-46.095499-26.097451-29.89708 0-54.294698 24.297627-54.294697 54.294698 0 19.698076 10.598965 36.696416 26.197441 46.195488-4.999512-8.099209-7.999219-17.598281-7.999219-27.997265z" fill="#FFDEC5" p-id="23800"></path><path d="M693.582267 357.865052c29.497119-0.499951 53.294795-24.597598 53.294796-54.194707 0-29.89708-24.297627-54.294698-54.294698-54.294698-29.89708 0-54.294698 24.297627-54.294698 54.294698 0 2.999707 0.299971 5.899424 0.699932 8.69915" fill="#FFB476" p-id="23801"></path><path d="M727.078996 331.26765c-9.399082 2.799727-19.598086 0.09999-27.297334-6.099405l-44.695635-35.896494c-0.499951-2.799727-0.699932-5.699443-0.699932-8.699151 0-8.199199 1.999805-15.898447 5.199492-22.897764-18.498194 8.69915-31.396934 27.297334-31.396934 48.995216 0 2.999707 0.299971 5.899424 0.699932 8.69915l54.494678 45.495557c21.29792-0.299971 39.496143-13.098721 47.995313-31.296943-1.399863 0.699932-2.799727 1.299873-4.29958 1.699834z" fill="#EAA068" p-id="23802"></path><path d="M511.80002 781.123718c-143.585978 0-260.374573-116.788595-260.374573-260.374572s116.788595-260.374573 260.374573-260.374573 260.374573 116.788595 260.374572 260.374573-116.888585 260.374573-260.374572 260.374572z m0-488.352309c-125.687726 0-227.977737 102.290011-227.977737 227.977737s102.290011 227.977737 227.977737 227.977736 227.977737-102.290011 227.977736-227.977736-102.290011-227.977737-227.977736-227.977737z" fill="#383F51" p-id="23803"></path><path d="M422.208769 455.655502m-24.397618 0a24.397617 24.397617 0 1 0 48.795235 0 24.397617 24.397617 0 1 0-48.795235 0Z" fill="#383F51" p-id="23804"></path><path d="M601.29128 455.655502m-24.397617 0a24.397617 24.397617 0 1 0 48.795235 0 24.397617 24.397617 0 1 0-48.795235 0Z" fill="#383F51" p-id="23805"></path><path d="M332.317547 371.563714c-1.699834 0-3.299678-0.299971-4.999512-0.799921-29.097158-9.499072-48.695245-36.396446-48.695244-66.993458 0-38.796211 31.596914-70.393126 70.493116-70.393126 38.39625 0 69.293233 29.997071 70.393125 68.393321 0.19998 8.899131-6.799336 16.398399-15.698467 16.598379-8.899131 0.299971-16.398399-6.799336-16.598379-15.698467-0.599941-20.697979-17.298311-36.896397-37.996289-36.896396-20.997949 0-38.09628 17.09833-38.09628 38.096279 0 16.598379 10.598965 31.096963 26.297432 36.196465 8.49917 2.799727 13.198711 11.898838 10.398985 20.398008-2.399766 6.799336-8.69915 11.098916-15.498487 11.098916z" fill="#383F51" p-id="23806"></path><path d="M693.582267 374.06347c-8.799141 0-15.998438-7.099307-16.198418-15.898447-0.09999-8.899131 6.999316-16.298408 15.898448-16.398399 20.597988-0.299971 37.296358-17.298311 37.296357-37.996289 0-20.997949-17.09833-38.09628-38.096279-38.09628s-38.09628 17.09833-38.09628 38.09628c0 2.099795 0.19998 4.0996 0.499951 6.099404 1.399863 8.799141-4.599551 17.09833-13.398691 18.598184-8.799141 1.399863-17.09833-4.599551-18.598184-13.398691-0.599941-3.899619-0.899912-7.599258-0.899912-11.298897 0-38.796211 31.596914-70.393126 70.493116-70.393126 38.796211 0 70.393126 31.596914 70.393125 70.393126 0 38.19627-30.996973 69.793184-69.193242 70.393126 0.09999-0.09999 0-0.09999-0.099991-0.099991z" fill="#383F51" p-id="23807"></path><path d="M323.618397 692.63236c-3.799629 0-7.499268-1.299873-10.598965-3.999609-6.799336-5.799434-7.499268-16.098428-1.599844-22.797774 51.394981-59.3942 125.787716-93.39088 203.88009-93.39088 74.992676 0 147.185626 31.696905 198.080656 86.891515 6.099404 6.599356 5.599453 16.79836-0.899912 22.897764-6.599356 6.099404-16.79836 5.599453-22.897764-0.899912-44.795625-48.595254-108.289425-76.49253-174.28298-76.49253-68.793282 0-134.186896 29.997071-179.482473 82.291963-3.199688 3.599648-7.699248 5.499463-12.198808 5.499463z" fill="#383F51" p-id="23808"></path><path d="M465.30456 539.247339l24.197637 48.395274c9.199102 18.398203 35.396543 18.398203 44.595645 0l24.197637-48.395274c8.29919-16.598379-3.799629-35.996485-22.297823-35.996485h-48.395273c-18.598184 0-30.597012 19.398106-22.297823 35.996485z" fill="#383F51" p-id="23809"></path><path d="M511.80002 661.335416c-8.899131 0-16.198418-7.199297-16.198419-16.198418v-64.493701c0-8.899131 7.199297-16.198418 16.198419-16.198419 8.899131 0 16.198418 7.199297 16.198418 16.198419v64.493701c0 8.899131-7.299287 16.198418-16.198418 16.198418z" fill="#383F51" p-id="23810"></path><path d="M674.084171 1023.90001c-50.79504 0-96.890538-24.497608-125.787716-63.093839-18.598184 19.598086-44.895616 31.896885-73.892783 31.996876h-0.299971c-35.396543 0-67.493409-18.798164-86.091593-47.195391-23.797676 18.298213-54.294698 27.997266-86.491553 25.197539-60.294112-5.099502-108.889366-54.494678-113.088957-114.888781-0.399961-5.999414-0.399961-11.998828 0-17.898252-18.298213 4.0996-37.396348 4.799531-56.394492 1.899815C65.94356 829.718973 14.148618 776.324187 5.749439 710.130651 2.0498 680.333561 12.548775 650.2365 37.046382 620.739381c19.798067-23.897666 21.597891-58.494288 4.399571-86.191583l-13.098721-21.09794c-0.999902-1.699834-1.899814-3.499658-2.699737-5.299482-6.899326-17.498291-10.298994-35.996485-10.298994-54.994629 0-57.594376 32.396836-107.689483 79.792208-133.186994-1.899814-1.899814-3.799629-3.899619-5.599453-5.999414-23.197735-26.297432-34.19666-61.493995-30.197051-96.490577 6.399375-56.194512 51.794942-101.89005 107.989454-108.689386 27.397324-3.299678 54.194708 2.499756 76.792501 15.398496 8.69915-41.795918 44.095694-74.692706 86.691534-80.192168 28.897178-3.799629 56.994434 4.39957 79.192266 22.897763 6.399375 5.299482 11.998828 11.398887 16.89835 17.998243 14.798555-21.597891 33.7967-40.296065 55.894541-54.394688C513.999805 10.598965 550.19627 0 587.292647 0c12.79875 0 25.5975 1.299873 38.09628 3.699639 27.997266 5.599453 54.794649 17.498291 77.792403 34.596621 38.696221 28.797188 65.093643 71.093057 74.592716 117.688507 15.698467-4.899522 32.596817-6.199395 49.495166-3.199687 42.895811 7.699248 76.992481 43.295772 82.891905 86.691534 2.799727 20.497998-0.599941 40.596036-8.999121 58.194317 1.299873 0.399961 2.599746 0.899912 3.899619 1.399863 42.795821 15.698467 74.292745 54.594668 80.392149 99.190313 6.199395 45.695538-12.69876 89.19129-47.195391 115.688703 52.494874 27.797285 84.89171 84.9917 80.292159 145.385802-5.699443 75.192657-66.893467 134.886827-142.286105 139.086417-22.397813 1.199883-44.195684-2.399766-64.893662-10.798945 17.898252 31.796895 24.497608 67.493409 18.798164 103.689874-4.699541 29.6971-17.998242 57.394395-38.396251 80.092178l-0.39996 0.499951c-28.697198 33.096768-70.193145 52.094913-113.888879 52.094913h-0.09999c-1.099893-0.09999-2.199785-0.09999-3.299678-0.09999zM550.29626 850.616932c15.998438 0 29.89708 11.898838 32.096866 28.097256 6.299385 46.79543 46.79543 81.692022 94.290792 80.49214 25.5975 0 49.295186-10.798945 65.593594-29.6971l0.799922-0.899913c12.498779-13.898643 20.298018-30.097061 22.997754-47.395371 3.399668-21.39791-0.399961-42.49585-11.098916-60.994044-14.398594-25.097549-10.898936-55.994532 8.69915-76.892491 18.698174-19.898057 46.79543-25.897471 71.89298-15.698467 11.698858 4.799531 24.197637 6.799336 36.996387 6.099405 42.29587-2.299775 77.992384-37.196368 81.192071-79.292257 2.999707-38.796211-19.498096-74.092764-55.894542-87.691436-24.497608-9.199102-40.995996-32.996778-40.995996-59.29421l-0.099991-3.899619c-0.19998-14.398594 9.199102-27.097354 22.897764-31.296944 27.997266-8.59916 45.395567-35.996485 41.395958-65.293623-2.899717-21.09794-17.998242-39.596133-38.496241-47.095401-10.898936-3.999609-21.597891-4.699541-32.796797-2.299775-13.998633 2.999707-28.297237-3.499658-35.196563-16.098428-1.099893-2.099795-2.399766-4.0996-3.599648-6.199395l-0.999903-1.799824c-4.599551-7.899229-5.599453-17.298311-2.899717-25.997461 2.699736-8.69915 8.999121-15.798457 17.198321-19.698077 12.59877-5.899424 24.097647-20.398008 21.497901-39.696123-2.099795-15.598477-14.798555-28.897178-30.197052-31.696905-18.298213-3.199688-31.896885 6.099404-38.59623 16.098428-5.099502 7.499268-13.098721 12.59877-22.097842 13.898643-8.999121 1.299873-18.198223-1.199883-25.19754-6.999317l-2.099795-1.599843c-8.59916-6.999316-13.098721-17.898252-11.898838-28.897178 0.599941-5.399473 0.899912-10.199004 0.899912-14.698565 0-41.395957-19.098135-79.292257-52.294893-103.989845-15.498486-11.498877-32.896787-19.298115-51.794941-22.997754-32.296846-6.399375-66.993458-0.09999-94.890734 17.798262-23.397715 14.998535-41.695928 37.596328-51.494971 63.493799-3.899619 10.398984-12.89874 18.098233-23.797676 20.298018-6.599356 1.399863-13.198711 2.899717-19.698076 4.699541-9.499072 2.499756-19.498096 0.599941-27.397325-5.099502-7.899229-5.799434-12.79875-14.798555-13.198711-24.597598-0.499951-10.498975-5.399473-20.398008-13.498682-27.197344-8.099209-6.799336-18.598184-9.799043-29.297139-8.399179-15.598477 1.999805-28.997168 14.598574-31.896885 29.99707-1.999805 10.798945 0.399961 21.39791 6.799336 29.997071 7.199297 9.599063 10.199004 21.29792 8.49917 33.096768-1.699834 11.698858-7.799238 21.897862-17.29831 28.997168-0.09999 0-0.09999 0.09999-0.199981 0.09999l-0.09999 0.09999c-10.998926 8.199199-25.49751 10.698955-38.696221 6.899327-13.198711-3.899619-23.597696-13.498682-28.397227-26.297432-9.699053-25.69749-35.596524-41.295967-62.993848-37.99629-26.297432 3.199688-48.395274 25.39752-51.394981 51.794942-1.999805 17.09833 3.199688 33.596719 14.398594 46.295479 11.098916 12.59877 27.097354 19.898057 43.895713 20.098038 11.398887 0.09999 21.897862 6.199395 27.697295 16.098427 5.699443 9.899033 5.799434 21.997852 0.299971 31.996876-1.899814 3.399668-3.699639 6.899326-5.499463 10.298994-5.999414 11.598867-18.298213 18.498194-31.296944 17.498291-2.199785-0.19998-4.39957-0.399961-6.699346-0.399961-47.595352 0-86.291573 38.696221-86.291573 86.291573 0 9.899033 1.699834 19.598086 4.899522 28.797188l11.398887 18.298213c31.996875 51.294991 28.097256 116.288644-9.499073 161.684211-12.59877 15.198516-18.298213 28.597207-16.898349 39.896104 4.699541 37.096377 34.796602 68.19334 71.792989 73.892783 28.997168 4.499561 56.994434-5.099502 76.7925-26.397422 5.999414-6.399375 14.398594-10.099014 23.297725-10.199004 8.59916 0 17.298311 3.399668 23.497705 9.699053 2.399766 2.399766 4.799531 4.799531 7.299288 7.199297 6.499365 6.199395 10.099014 14.798555 9.999023 23.697686-0.09999 8.899131-3.899619 17.498291-10.498975 23.497705-13.498682 12.298799-20.497998 29.79709-19.198125 47.995313 1.999805 28.397227 25.69749 52.494874 53.994727 54.894639 29.497119 2.499756 55.994532-16.598379 62.893858-45.295576 2.099795-8.69915 7.599258-16.098428 15.398497-20.597989 7.799238-4.39957 16.99834-5.499463 25.49751-2.899717l5.099502 1.399864c8.29919 2.399766 15.298506 7.999219 19.498096 15.598476 4.0996 7.599258 5.099502 16.498389 2.599746 24.797579-1.499854 4.899522-1.999805 9.999024-1.399864 15.098525 1.999805 18.598184 18.898154 33.596719 37.596329 33.596719h0.09999c20.797969-0.09999 37.596328-16.99834 37.596329-37.796309 0-1.299873-0.09999-2.499756-0.199981-3.799629-0.799922-8.59916 1.799824-17.19832 7.399277-23.797676 5.499463-6.599356 13.498682-10.798945 22.097842-11.498877l5.999415-0.399961c0.999902 0.19998 2.099795 0.19998 3.199687 0.199981z" fill="#383F51" p-id="23811"></path></svg>